<svg width="48" height="36" viewBox="0 0 48 36" fill="none" xmlns="http://www.w3.org/2000/svg">
<path d="M46.2825 12.0573C46.638 11.7747 47.1667 12.0391 47.1667 12.4857V31.125C47.1667 33.5404 45.207 35.5 42.7917 35.5H4.875C2.45964 35.5 0.5 33.5404 0.5 31.125V12.4948C0.5 12.0391 1.01953 11.7839 1.38411 12.0664C3.42578 13.6523 6.13281 15.6667 15.4297 22.4206C17.3529 23.8242 20.5977 26.7773 23.8333 26.7591C27.0872 26.7865 30.3958 23.7695 32.2461 22.4206C41.543 15.6667 44.2409 13.6432 46.2825 12.0573ZM23.8333 23.8333C25.9479 23.8698 28.9922 21.1719 30.5234 20.0599C42.6185 11.2826 43.5391 10.5169 46.3281 8.32943C46.8568 7.91927 47.1667 7.28125 47.1667 6.60677V4.875C47.1667 2.45964 45.207 0.5 42.7917 0.5H4.875C2.45964 0.5 0.5 2.45964 0.5 4.875V6.60677C0.5 7.28125 0.809896 7.91016 1.33854 8.32943C4.1276 10.5078 5.04818 11.2826 17.1432 20.0599C18.6745 21.1719 21.7187 23.8698 23.8333 23.8333Z" fill="#3461E2"/>
</svg>
