<svg width="52" height="32" viewBox="0 0 52 32" fill="none" xmlns="http://www.w3.org/2000/svg">
<path d="M25.9993 4.54167C30.2131 4.52893 34.3453 5.59747 37.9209 7.62443C41.4964 9.65139 44.3702 12.5545 46.2118 16C42.4306 23.0208 34.7077 27.4583 25.9993 27.4583C17.291 27.4583 9.5681 23.0208 5.78685 16C7.62847 12.5545 10.5023 9.65139 14.0778 7.62443C17.6534 5.59747 21.7856 4.52893 25.9993 4.54167ZM25.9993 0.375C14.541 0.375 4.7556 6.85417 0.791016 16C4.7556 25.1458 14.541 31.625 25.9993 31.625C37.4577 31.625 47.2431 25.1458 51.2077 16C47.2431 6.85417 37.4577 0.375 25.9993 0.375ZM25.9993 10.7917C27.5188 10.7917 28.9761 11.3404 30.0505 12.3172C31.1249 13.2939 31.7285 14.6187 31.7285 16C31.7285 17.3813 31.1249 18.7061 30.0505 19.6828C28.9761 20.6596 27.5188 21.2083 25.9993 21.2083C24.4799 21.2083 23.0226 20.6596 21.9482 19.6828C20.8738 18.7061 20.2702 17.3813 20.2702 16C20.2702 14.6187 20.8738 13.2939 21.9482 12.3172C23.0226 11.3404 24.4799 10.7917 25.9993 10.7917ZM25.9993 6.625C20.316 6.625 15.6868 10.8333 15.6868 16C15.6868 21.1667 20.316 25.375 25.9993 25.375C31.6827 25.375 36.3119 21.1667 36.3119 16C36.3119 10.8333 31.6827 6.625 25.9993 6.625Z" fill="black"/>
</svg>
