<svg width="46" height="40" viewBox="0 0 46 40" fill="none" xmlns="http://www.w3.org/2000/svg">
<path d="M1.71422 8.57143H38.8571C39.6464 8.57143 40.2856 7.93214 40.2856 7.14286V1.42857C40.2856 0.639286 39.6464 0 38.8571 0H1.71422C0.92493 0 0.285645 0.639286 0.285645 1.42857V7.14286C0.285645 7.93214 0.92493 8.57143 1.71422 8.57143ZM44.5714 15.7143H7.4285C6.63922 15.7143 5.99993 16.3536 5.99993 17.1429V22.8571C5.99993 23.6464 6.63922 24.2857 7.4285 24.2857H44.5714C45.3606 24.2857 45.9999 23.6464 45.9999 22.8571V17.1429C45.9999 16.3536 45.3606 15.7143 44.5714 15.7143ZM38.8571 31.4286H1.71422C0.92493 31.4286 0.285645 32.0679 0.285645 32.8571V38.5714C0.285645 39.3607 0.92493 40 1.71422 40H38.8571C39.6464 40 40.2856 39.3607 40.2856 38.5714V32.8571C40.2856 32.0679 39.6464 31.4286 38.8571 31.4286Z" fill="#F6F9FE"/>
</svg>
