<svg width="28" height="24" viewBox="0 0 28 24" fill="none" xmlns="http://www.w3.org/2000/svg">
<path d="M12.0941 23.9766L9.46369 23.1469C9.18771 23.0625 9.03247 22.7484 9.11009 22.4484L14.9962 0.406101C15.0738 0.106078 15.3627 -0.0626848 15.6387 0.0216966L18.2691 0.851447C18.5451 0.935828 18.7003 1.24991 18.6227 1.54994L12.7366 23.5922C12.6547 23.8922 12.3701 24.0657 12.0941 23.9766ZM7.17824 18.7169L9.05403 16.5417C9.25239 16.312 9.23946 15.9463 9.01954 15.7354L5.11272 11.9992L9.01954 8.26294C9.23946 8.05199 9.2567 7.68634 9.05403 7.45663L7.17824 5.28147C6.98419 5.05645 6.65647 5.04239 6.44517 5.25803L0.231346 11.5866C0.0114262 11.807 0.0114262 12.1867 0.231346 12.407L6.44517 18.7403C6.65647 18.9559 6.98419 18.9466 7.17824 18.7169ZM21.2876 18.745L27.5015 12.4117C27.7214 12.1914 27.7214 11.8116 27.5015 11.5913L21.2876 5.25334C21.0807 5.04239 20.7529 5.05176 20.5546 5.27678L18.6788 7.45194C18.4804 7.68165 18.4934 8.0473 18.7133 8.25825L22.6201 11.9992L18.7133 15.7354C18.4934 15.9463 18.4761 16.312 18.6788 16.5417L20.5546 18.7169C20.7486 18.9466 21.0763 18.9559 21.2876 18.745Z" fill="#3461E2"/>
</svg>
