<svg width="56" height="30" viewBox="0 0 56 30" fill="none" xmlns="http://www.w3.org/2000/svg">
<path d="M28 0.416687C25.8727 0.416687 23.8326 1.18491 22.3284 2.55237C20.8242 3.91982 19.9792 5.77448 19.9792 7.70835C19.9792 9.64222 20.8242 11.4969 22.3284 12.8643C23.8326 14.2318 25.8727 15 28 15C30.1273 15 32.1674 14.2318 33.6716 12.8643C35.1758 11.4969 36.0208 9.64222 36.0208 7.70835C36.0208 5.77448 35.1758 3.91982 33.6716 2.55237C32.1674 1.18491 30.1273 0.416687 28 0.416687ZM28 4.58335C28.9117 4.58335 29.786 4.91259 30.4307 5.49864C31.0753 6.0847 31.4375 6.87955 31.4375 7.70835C31.4375 8.53716 31.0753 9.33201 30.4307 9.91806C29.786 10.5041 28.9117 10.8334 28 10.8334C27.0883 10.8334 26.214 10.5041 25.5693 9.91806C24.9247 9.33201 24.5625 8.53716 24.5625 7.70835C24.5625 6.87955 24.9247 6.0847 25.5693 5.49864C26.214 4.91259 27.0883 4.58335 28 4.58335ZM13.1042 6.66669C11.5847 6.66669 10.1275 7.21542 9.05303 8.19217C7.97861 9.16892 7.375 10.4937 7.375 11.875C7.375 13.8334 8.58958 15.5209 10.3313 16.4167C11.1562 16.8334 12.0958 17.0834 13.1042 17.0834C14.1125 17.0834 15.0521 16.8334 15.8771 16.4167C16.725 15.9792 17.4354 15.3542 17.9625 14.6042C16.293 12.6262 15.3905 10.2015 15.3958 7.70835V7.12502C14.7083 6.83335 13.9292 6.66669 13.1042 6.66669ZM42.8958 6.66669C42.0708 6.66669 41.2917 6.83335 40.6042 7.12502V7.70835C40.6042 10.2084 39.7104 12.625 38.0375 14.6042C38.3125 15 38.6104 15.3125 38.9542 15.625C40.011 16.5565 41.4239 17.0792 42.8958 17.0834C43.9042 17.0834 44.8438 16.8334 45.6688 16.4167C47.4104 15.5209 48.625 13.8334 48.625 11.875C48.625 10.4937 48.0214 9.16892 46.947 8.19217C45.8725 7.21542 44.4153 6.66669 42.8958 6.66669ZM28 19.1667C22.6375 19.1667 11.9583 21.6042 11.9583 26.4584V29.5834H44.0417V26.4584C44.0417 21.6042 33.3625 19.1667 28 19.1667ZM11.2938 20.3125C6.87083 20.7917 0.5 22.8334 0.5 26.4584V29.5834H7.375V25.5625C7.375 23.4584 8.95625 21.7084 11.2938 20.3125ZM44.7063 20.3125C47.0438 21.7084 48.625 23.4584 48.625 25.5625V29.5834H55.5V26.4584C55.5 22.8334 49.1292 20.7917 44.7063 20.3125ZM28 23.3334C31.5063 23.3334 35.425 24.375 37.6937 25.4167H18.3063C20.575 24.375 24.4938 23.3334 28 23.3334Z" fill="black"/>
</svg>
