<svg width="29" height="24" viewBox="0 0 29 24" fill="none" xmlns="http://www.w3.org/2000/svg">
<path d="M4.87242 10.2857C6.39473 10.2857 7.63242 8.74821 7.63242 6.85714C7.63242 4.96607 6.39473 3.42857 4.87242 3.42857C3.35011 3.42857 2.11242 4.96607 2.11242 6.85714C2.11242 8.74821 3.35011 10.2857 4.87242 10.2857ZM24.1924 10.2857C25.7147 10.2857 26.9524 8.74821 26.9524 6.85714C26.9524 4.96607 25.7147 3.42857 24.1924 3.42857C22.6701 3.42857 21.4324 4.96607 21.4324 6.85714C21.4324 8.74821 22.6701 10.2857 24.1924 10.2857ZM25.5724 12H22.8124C22.0534 12 21.3677 12.3804 20.8675 12.9964C22.6054 14.1804 23.8388 16.3179 24.1062 18.8571H26.9524C27.7157 18.8571 28.3324 18.0911 28.3324 17.1429V15.4286C28.3324 13.5375 27.0947 12 25.5724 12ZM14.5324 12C17.2019 12 19.3624 9.31607 19.3624 6C19.3624 2.68393 17.2019 0 14.5324 0C11.863 0 9.70242 2.68393 9.70242 6C9.70242 9.31607 11.863 12 14.5324 12ZM17.8444 13.7143H17.4865C16.5895 14.25 15.5933 14.5714 14.5324 14.5714C13.4715 14.5714 12.4797 14.25 11.5784 13.7143H11.2204C8.47767 13.7143 6.25242 16.4786 6.25242 19.8857V21.4286C6.25242 22.8482 7.17961 24 8.32242 24H20.7424C21.8852 24 22.8124 22.8482 22.8124 21.4286V19.8857C22.8124 16.4786 20.5872 13.7143 17.8444 13.7143ZM8.19736 12.9964C7.69711 12.3804 7.01142 12 6.25242 12H3.49242C1.97011 12 0.732422 13.5375 0.732422 15.4286V17.1429C0.732422 18.0911 1.34911 18.8571 2.11242 18.8571H4.95436C5.22605 16.3179 6.45942 14.1804 8.19736 12.9964Z" fill="#3461E2"/>
</svg>
