<svg width="18" height="16" viewBox="0 0 18 16" fill="none" xmlns="http://www.w3.org/2000/svg">
<path d="M9.01129 8.91296L2.86979 15.0545C2.44531 15.4789 1.75891 15.4789 1.33894 15.0545L0.318364 14.0339C-0.106121 13.6094 -0.106121 12.923 0.318364 12.503L4.6716 8.14979L0.318364 3.79655C-0.106121 3.37206 -0.106121 2.68566 0.318364 2.26569L1.33442 1.23609C1.75891 0.811603 2.44531 0.811603 2.86528 1.23609L9.00677 7.37758C9.43578 7.80207 9.43578 8.48847 9.01129 8.91296ZM17.6816 7.37758L11.5401 1.23609C11.1157 0.811603 10.4293 0.811603 10.0093 1.23609L8.98871 2.25666C8.56423 2.68115 8.56423 3.36755 8.98871 3.78752L13.3419 8.14076L8.98871 12.494C8.56423 12.9185 8.56423 13.6049 8.98871 14.0248L10.0093 15.0454C10.4338 15.4699 11.1202 15.4699 11.5401 15.0454L17.6816 8.90393C18.1061 8.48847 18.1061 7.80207 17.6816 7.37758Z" fill="white"/>
</svg>
