<svg width="36" height="36" viewBox="0 0 36 36" fill="none" xmlns="http://www.w3.org/2000/svg">
<path d="M34.5019 25.2322L26.8455 21.9509C26.5184 21.8115 26.1549 21.7822 25.8097 21.8672C25.4645 21.9523 25.1562 22.1472 24.9314 22.4226L21.5407 26.5653C16.2193 24.0563 11.9369 19.7738 9.42789 14.4525L13.5705 11.0618C13.8465 10.8373 14.0418 10.5291 14.1269 10.1837C14.212 9.83834 14.1823 9.47464 14.0422 9.14768L10.7609 1.49129C10.6072 1.13883 10.3353 0.851058 9.99211 0.677595C9.64893 0.504133 9.25597 0.455852 8.88101 0.54108L1.77151 2.18173C1.41 2.26521 1.08745 2.46877 0.856524 2.75916C0.625596 3.04956 0.499917 3.40966 0.5 3.78069C0.5 21.3152 14.7122 35.5 32.2193 35.5C32.5905 35.5002 32.9507 35.3746 33.2412 35.1437C33.5318 34.9127 33.7354 34.5901 33.8189 34.2285L35.4596 27.119C35.5443 26.7422 35.495 26.3477 35.3202 26.0033C35.1454 25.6589 34.856 25.3863 34.5019 25.2322Z" fill="#3461E2"/>
</svg>
