<svg width="28" height="24" viewBox="0 0 28 24" fill="none" xmlns="http://www.w3.org/2000/svg">
<path d="M28.0004 11.25C28.0004 10.1423 27.3799 9.18563 26.4671 8.66625V1.50047C26.4671 1.09031 26.1326 0 24.9337 0C24.5926 0 24.2538 0.111562 23.9763 0.329062L19.902 3.51797C17.8555 5.11828 15.2862 6 12.6671 6H3.46706C1.7732 6 0.400391 7.34297 0.400391 9V13.5C0.400391 15.157 1.7732 16.5 3.46706 16.5H5.08185C5.01524 16.9913 4.97739 17.4909 4.97739 18C4.97739 19.8642 5.4211 21.6258 6.20214 23.2003C6.45083 23.7014 6.99372 24 7.56297 24H11.1222C12.3705 24 13.1199 22.6012 12.3633 21.63C11.5774 20.6213 11.1102 19.3631 11.1102 18C11.1102 17.4792 11.1879 16.9786 11.3216 16.5H12.6671C15.2862 16.5 17.8555 17.3817 19.9015 18.982L23.9759 22.1709C24.2476 22.3837 24.5852 22.4997 24.9332 22.5C26.1273 22.5 26.4666 21.4322 26.4666 21V13.8342C27.3799 13.3144 28.0004 12.3577 28.0004 11.25ZM23.4004 17.8791L21.8167 16.6397C19.2292 14.6147 15.9791 13.5 12.6671 13.5V9C15.9791 9 19.2292 7.88531 21.8167 5.86031L23.4004 4.62094V17.8791Z" fill="#3461E2"/>
</svg>
